<?xml version="1.0" standalone="no"?>
<!DOCTYPE svg PUBLIC "-//W3C//DTD SVG 20010904//EN"
 "http://www.w3.org/TR/2001/REC-SVG-20010904/DTD/svg10.dtd">
<svg version="1.0" xmlns="http://www.w3.org/2000/svg"
 width="512.000000pt" height="512.000000pt" viewBox="0 0 512.000000 512.000000"
 preserveAspectRatio="xMidYMid meet">
<metadata>
Created by potrace 1.11, written by Peter Selinger 2001-2013
</metadata>
<g transform="translate(0.000000,512.000000) scale(0.100000,-0.100000)"
fill="#000000" stroke="none">
<path d="M1562 4889 c-170 -54 -289 -173 -347 -349 -16 -47 -19 -90 -19 -312
-1 -164 -5 -258 -11 -259 -5 0 -176 -2 -380 -3 -401 -2 -421 -5 -536 -63 -64
-32 -176 -141 -207 -203 -12 -25 -31 -74 -42 -110 -19 -62 -20 -100 -20 -1025
0 -1051 -1 -1024 59 -1144 17 -32 58 -86 92 -120 77 -77 164 -123 279 -146 8
-2 146 -4 305 -4 l290 -1 0 -446 0 -446 27 -23 c42 -36 92 -28 137 21 20 22
77 84 126 139 50 54 97 106 105 115 8 9 76 83 150 165 74 83 142 157 150 165
8 8 55 60 105 115 49 55 110 121 135 147 l45 47 725 2 c792 3 798 3 918 61 75
37 167 124 210 200 32 58 60 149 64 211 2 21 5 37 8 37 3 0 77 -80 165 -177
268 -297 305 -333 343 -333 41 0 82 38 83 77 0 15 1 215 1 444 l1 415 83 2
c148 4 264 52 364 152 68 68 105 132 130 224 19 66 20 114 20 1030 0 828 -2
969 -15 1019 -46 176 -167 306 -340 366 l-70 24 -1535 3 c-1504 3 -1536 2
-1598 -17z m3151 -173 c93 -31 164 -95 206 -185 l26 -56 0 -980 0 -980 -26
-56 c-34 -71 -96 -134 -163 -164 -66 -31 -85 -34 -228 -36 -109 -1 -122 -3
-146 -24 l-27 -23 -3 -377 c-3 -358 -4 -376 -20 -358 -9 11 -56 63 -105 115
-48 53 -95 104 -105 115 -9 11 -53 59 -97 108 -44 48 -84 95 -90 104 -5 10
-10 333 -10 826 l-2 810 -25 66 c-50 134 -114 213 -228 279 -126 74 -79 71
-1252 68 -693 -2 -1049 0 -1051 7 -2 6 -2 118 -1 250 1 218 3 245 23 296 38
100 125 177 230 205 35 9 402 11 1546 9 1355 -2 1505 -4 1548 -19z m-1158
-945 c71 -34 148 -116 175 -187 l23 -59 1 -965 0 -965 -31 -66 c-44 -95 -118
-160 -218 -191 -17 -6 -357 -12 -794 -14 -572 -4 -769 -8 -786 -17 -13 -7 -81
-75 -151 -152 -138 -152 -283 -312 -299 -329 -5 -7 -32 -36 -60 -67 -27 -30
-86 -94 -129 -142 -44 -48 -82 -87 -85 -87 -4 0 -6 160 -6 356 0 381 -3 406
-49 423 -13 6 -181 11 -372 13 l-349 3 -55 26 c-70 33 -136 99 -169 169 l-26
55 0 980 0 980 33 67 c52 106 144 173 256 187 28 3 724 6 1546 6 l1495 0 50
-24z"/>
<path d="M835 3112 c-36 -7 -65 -43 -65 -79 0 -37 36 -82 67 -84 10 0 271 -1
581 -1 445 -1 568 2 587 12 31 16 49 68 36 101 -21 56 3 54 -615 55 -314 0
-580 -1 -591 -4z"/>
<path d="M838 2602 c-15 -2 -37 -15 -48 -29 -37 -47 -19 -112 37 -130 16 -5
497 -9 1148 -8 1204 1 1154 -1 1172 50 15 43 1 89 -31 108 -16 9 -280 12
-1136 12 -613 0 -1127 -1 -1142 -3z"/>
<path d="M819 2083 c-53 -22 -65 -84 -25 -130 l24 -28 1129 -2 c736 -1 1137 2
1155 9 64 24 72 117 12 148 -34 19 -2251 22 -2295 3z"/>
</g>
</svg>
